<svg viewBox="0 0 172 27" xmlns="http://www.w3.org/2000/svg"><g fill="none"><path d="M22.915 10.723a1.22 1.22 0 0 1 1.22 1.214v12.705c0 .669-.541 1.215-1.214 1.215H1.259a1.215 1.215 0 0 1-1.215-1.215V1.601C.044.933.585.387 1.26.387h2.633c.668 0 1.214.54 1.214 1.214V9.58a1.231 1.231 0 0 0 1.066 1.143h1.97c.597-.055 1.094-.541 1.127-1.143V1.6c0-.668.54-1.214 1.214-1.214h2.633c.668 0 1.215.54 1.215 1.214v7.896c0 .624.458 1.154 1.06 1.226h7.524zm-3.467 8.713V16.95c0-.668-.54-1.215-1.214-1.215H15.6c-.668 0-1.215.541-1.215 1.215v2.485c0 .668.541 1.214 1.215 1.214h2.633c.668 0 1.214-.54 1.214-1.214zm22.22 6.444l-1.259-5.876a21.833 21.833 0 0 0-.596-2.33c-.215-.679-.52-1.248-.9-1.711-.386-.464-.889-.812-1.513-1.055-.623-.237-1.44-.359-2.45-.359h-2.645v11.33h-2.881V.431h6.304c1.043 0 2.053.11 3.036.325.977.216 1.844.575 2.595 1.072a5.595 5.595 0 0 1 1.81 1.982c.458.823.685 1.833.685 3.037 0 .922-.11 1.739-.326 2.44a5.084 5.084 0 0 1-.972 1.817c-.43.508-.971.938-1.611 1.286-.64.348-1.397.63-2.258.845v.072c.839.215 1.512.491 2.015.817.502.331.905.723 1.209 1.182.298.458.53.982.695 1.573.166.591.32 1.27.475 2.027l1.468 6.973h-2.881zm-.701-18.73c0-1.054-.188-1.877-.558-2.457a3.387 3.387 0 0 0-1.474-1.286c-.613-.276-1.308-.442-2.087-.497a33.901 33.901 0 0 0-2.395-.083H32.31v9.331h1.584c.867 0 1.717-.06 2.567-.187a6.89 6.89 0 0 0 2.269-.73 4.297 4.297 0 0 0 1.623-1.523c.403-.657.613-1.513.613-2.568zM57.82 25.88v-2.325h-.071a3.97 3.97 0 0 1-.972 1.198c-.409.342-.856.63-1.342.856a7.332 7.332 0 0 1-1.529.513 7.268 7.268 0 0 1-1.54.171c-.756 0-1.43-.116-2.015-.353a3.92 3.92 0 0 1-1.474-.988 4.291 4.291 0 0 1-.91-1.552c-.21-.607-.315-1.28-.315-2.026 0-.674.132-1.27.397-1.8s.613-.994 1.055-1.397a6.613 6.613 0 0 1 1.523-1.038c.58-.293 1.176-.525 1.794-.702a13.376 13.376 0 0 1 3.61-.525c.299 0 .591-.005.867-.01.276-.006.563-.039.867-.1v-.375c0-.646-.011-1.292-.028-1.938a5.16 5.16 0 0 0-.325-1.74 2.68 2.68 0 0 0-.972-1.247c-.447-.315-1.115-.475-1.987-.475-.519 0-.983.05-1.397.144a2.908 2.908 0 0 0-1.07.463 2.429 2.429 0 0 0-.73.862c-.187.359-.314.8-.386 1.325h-2.793c.01-.89.199-1.64.568-2.258a4.63 4.63 0 0 1 1.43-1.513 6.262 6.262 0 0 1 2.01-.856 9.677 9.677 0 0 1 2.296-.27c1.993 0 3.472.452 4.438 1.352.967.9 1.452 2.33 1.452 4.285v12.318h-2.45zm-1.55-7.963c-.564 0-1.182.061-1.845.188a7.07 7.07 0 0 0-1.866.624c-.58.293-1.06.668-1.451 1.143-.392.475-.586 1.06-.586 1.756 0 .745.227 1.358.674 1.838.453.48 1.049.718 1.794.718.442 0 .872-.066 1.28-.21a4.57 4.57 0 0 0 1.143-.568 4.9 4.9 0 0 0 .966-.867c.288-.337.525-.702.702-1.1.143-.325.259-.623.353-.888a5.766 5.766 0 0 0 .298-1.651c.011-.287.017-.618.017-.988h-1.48v.005zm22.975-.629c0 1.154-.116 2.27-.353 3.351-.238 1.083-.63 2.043-1.182 2.883a6.183 6.183 0 0 1-2.17 2.015c-.894.502-2.009.756-3.34.756-1.236 0-2.274-.193-3.113-.574-.839-.386-1.518-.916-2.026-1.601-.507-.685-.877-1.49-1.098-2.424a13.128 13.128 0 0 1-.331-3.037V.431h2.5v10.805h.089a4.29 4.29 0 0 1 .7-1.402 4.78 4.78 0 0 1 1.1-1.038 5.031 5.031 0 0 1 1.385-.646 5.492 5.492 0 0 1 1.568-.227c.839 0 1.579.133 2.213.403.635.271 1.187.64 1.645 1.11.464.47.85 1.01 1.16 1.63a9.8 9.8 0 0 1 .74 1.97c.182.696.309 1.408.386 2.137.088.723.127 1.43.127 2.115zm-2.882-.066a18.4 18.4 0 0 0-.06-1.375 16.056 16.056 0 0 0-.216-1.563c-.1-.535-.243-1.055-.425-1.562a5.438 5.438 0 0 0-.701-1.359 3.458 3.458 0 0 0-1.043-.96c-.409-.249-.884-.37-1.425-.37-.574 0-1.087.132-1.529.397a4.058 4.058 0 0 0-1.153 1.044c-.326.43-.597.922-.812 1.474a11.448 11.448 0 0 0-.513 1.69 14.496 14.496 0 0 0-.27 1.689 14.994 14.994 0 0 0-.084 1.474c0 .674.05 1.38.144 2.12.094.746.287 1.436.568 2.071.282.635.685 1.16 1.21 1.574.524.414 1.214.618 2.08.618.575 0 1.083-.11 1.524-.326a3.555 3.555 0 0 0 1.126-.872c.315-.364.569-.79.773-1.27.204-.48.365-.977.486-1.49.121-.514.204-1.033.254-1.547.044-.513.066-1 .066-1.457zm20.619.066c0 1.154-.116 2.27-.354 3.351-.237 1.083-.629 2.043-1.18 2.883a6.183 6.183 0 0 1-2.17 2.015c-.895.502-2.01.756-3.34.756-1.237 0-2.275-.193-3.114-.574-.839-.386-1.518-.916-2.026-1.601-.508-.685-.877-1.49-1.098-2.424a13.128 13.128 0 0 1-.331-3.037V.431h2.5v10.805h.089a4.29 4.29 0 0 1 .7-1.402 4.78 4.78 0 0 1 1.1-1.038 5.018 5.018 0 0 1 1.385-.646 5.492 5.492 0 0 1 1.568-.227c.839 0 1.578.133 2.213.403.635.271 1.187.64 1.645 1.11.464.47.85 1.01 1.16 1.63a9.8 9.8 0 0 1 .74 1.97c.182.696.308 1.408.386 2.137.088.723.127 1.43.127 2.115zm-2.882-.066a18.4 18.4 0 0 0-.06-1.375 16.056 16.056 0 0 0-.216-1.563c-.1-.535-.243-1.055-.425-1.562a5.438 5.438 0 0 0-.701-1.359 3.458 3.458 0 0 0-1.043-.96c-.409-.249-.884-.37-1.425-.37-.574 0-1.087.132-1.529.397a4.058 4.058 0 0 0-1.154 1.044c-.325.43-.596.922-.811 1.474a11.448 11.448 0 0 0-.513 1.69 14.496 14.496 0 0 0-.27 1.689 14.994 14.994 0 0 0-.084 1.474c0 .674.05 1.38.144 2.12.094.746.287 1.436.568 2.071.282.635.685 1.16 1.21 1.574.524.414 1.214.618 2.08.618.575 0 1.083-.11 1.524-.326a3.555 3.555 0 0 0 1.126-.872c.315-.364.569-.79.773-1.27a9.3 9.3 0 0 0 .486-1.49c.121-.514.204-1.033.254-1.547.044-.513.066-1 .066-1.457zm7.31-13.478V.43h3.311v3.313h-3.312zm.397 22.135V8.321h2.5v17.558h-2.5zm12.387-15.454V21.23c0 .939.227 1.662.685 2.181.458.52 1.187.773 2.186.773a4 4 0 0 0 .883-.083 6.9 6.9 0 0 0 .834-.26v2.254c-.37.06-.74.11-1.11.143-.364.039-.734.055-1.11.055-.828 0-1.545-.077-2.152-.232-.608-.154-1.116-.408-1.524-.767-.409-.353-.712-.817-.91-1.397-.2-.58-.299-1.292-.299-2.142v-11.33h-2.865v-2.11h2.865V4.23l2.5-1.584v5.67h4.737v2.11h-4.72z" fill="#F60"/><path fill="#B8B8B8" d="M143.49 25.949V3.559h-.07l-7.492 22.384h-2.843L125.61 3.559h-.088v22.384h-2.572V.5h4.322l7.22 21.65h.072L141.802.5h4.267v25.449zm16.766.008c-1.187 0-2.241-.177-3.152-.53a7.682 7.682 0 0 1-2.396-1.458 8.63 8.63 0 0 1-1.728-2.17 13.079 13.079 0 0 1-1.131-2.655 17.557 17.557 0 0 1-.624-2.938 24.284 24.284 0 0 1-.188-3.015c0-1.054.055-2.109.171-3.158a19.3 19.3 0 0 1 .574-3.037c.27-.977.635-1.877 1.088-2.722a8.07 8.07 0 0 1 1.728-2.186c.695-.619 1.523-1.105 2.473-1.458.955-.353 2.07-.53 3.34-.53 1.236 0 2.318.182 3.251.547a7.407 7.407 0 0 1 2.396 1.496c.668.63 1.22 1.37 1.656 2.225.436.85.784 1.761 1.038 2.728.254.966.43 1.97.53 3.014.1 1.044.155 2.071.155 3.081a29.544 29.544 0 0 1-.243 3.655 21.514 21.514 0 0 1-.376 2.071c-.16.696-.37 1.353-.624 1.966a8.658 8.658 0 0 1-.91 1.673 4.27 4.27 0 0 1-1.231 1.187l.071.072 5.24-.326v2.468h-11.108zm6.05-12.804c0-.663-.022-1.386-.06-2.17a20.152 20.152 0 0 0-.27-2.358 14.34 14.34 0 0 0-.602-2.286 7.21 7.21 0 0 0-1.055-1.965 5.066 5.066 0 0 0-1.612-1.37c-.635-.342-1.402-.513-2.29-.513-.94 0-1.74.165-2.408.497a5.144 5.144 0 0 0-1.694 1.33 6.98 6.98 0 0 0-1.121 1.927 13.39 13.39 0 0 0-.651 2.28c-.15.796-.249 1.591-.299 2.386-.05.8-.071 1.546-.071 2.242 0 .662.027 1.375.088 2.142.06.768.166 1.535.326 2.308.154.768.375 1.513.657 2.23a7.184 7.184 0 0 0 1.093 1.911c.447.552.988.994 1.623 1.325.635.332 1.39.497 2.252.497.972 0 1.8-.154 2.479-.469a4.952 4.952 0 0 0 1.694-1.259 6.071 6.071 0 0 0 1.066-1.828c.26-.69.452-1.424.58-2.197.126-.773.204-1.563.231-2.358.028-.806.044-1.573.044-2.302z"/></g></svg>