<?xml version="1.0" standalone="no"?>
<!DOCTYPE svg PUBLIC "-//W3C//DTD SVG 20010904//EN"
 "http://www.w3.org/TR/2001/REC-SVG-20010904/DTD/svg10.dtd">
<svg version="1.0" xmlns="http://www.w3.org/2000/svg"
 width="64.000000pt" height="64.000000pt" viewBox="0 0 64.000000 64.000000"
 preserveAspectRatio="xMidYMid meet">

<g transform="translate(0.000000,64.000000) scale(0.100000,-0.100000)"
fill="#000000" stroke="none">
<path d="M40 500 l0 -100 100 0 100 0 0 -60 0 -60 -50 0 c-43 0 -50 3 -50 20
0 17 -7 20 -50 20 l-50 0 0 -50 0 -50 50 0 c43 0 50 3 50 20 0 17 7 20 50 20
l50 0 0 -60 c0 -53 -2 -60 -20 -60 -13 0 -20 -7 -20 -20 0 -16 -7 -20 -30 -20
-23 0 -30 4 -30 20 0 17 -7 20 -50 20 l-50 0 0 -50 0 -50 50 0 c43 0 50 3 50
20 0 16 7 20 30 20 23 0 30 -4 30 -20 0 -17 7 -20 50 -20 l50 0 0 50 c0 43 -3
50 -20 50 -19 0 -20 7 -20 130 l0 130 60 0 60 0 0 -40 c0 -33 -3 -40 -20 -40
-17 0 -20 -7 -20 -50 0 -43 3 -50 20 -50 17 0 20 -7 20 -40 0 -33 -3 -40 -20
-40 -17 0 -20 -7 -20 -50 l0 -50 50 0 c43 0 50 3 50 20 0 16 7 20 30 20 23 0
30 -4 30 -20 0 -17 7 -20 50 -20 l50 0 0 50 0 50 -50 0 c-43 0 -50 -3 -50 -20
0 -16 -7 -20 -30 -20 -23 0 -30 4 -30 20 0 13 -7 20 -20 20 -17 0 -20 7 -20
40 0 33 3 40 20 40 13 0 20 7 20 20 0 16 7 20 30 20 23 0 30 -4 30 -20 0 -17
7 -20 50 -20 l50 0 0 50 0 50 -50 0 c-43 0 -50 -3 -50 -20 0 -16 -7 -20 -30
-20 -23 0 -30 4 -30 20 0 13 -7 20 -20 20 -17 0 -20 7 -20 40 l0 40 100 0 100
0 0 100 0 100 -280 0 -280 0 0 -100z m540 0 l0 -80 -260 0 -260 0 0 80 0 80
260 0 260 0 0 -80z m-460 -230 c0 -27 -3 -30 -30 -30 -27 0 -30 3 -30 30 0 27
3 30 30 30 27 0 30 -3 30 -30z m300 0 c0 -27 -3 -30 -30 -30 -27 0 -30 3 -30
30 0 27 3 30 30 30 27 0 30 -3 30 -30z m160 0 c0 -27 -3 -30 -30 -30 -27 0
-30 3 -30 30 0 27 3 30 30 30 27 0 30 -3 30 -30z m-460 -180 c0 -27 -3 -30
-30 -30 -27 0 -30 3 -30 30 0 27 3 30 30 30 27 0 30 -3 30 -30z m160 0 c0 -27
-3 -30 -30 -30 -27 0 -30 3 -30 30 0 27 3 30 30 30 27 0 30 -3 30 -30z m140 0
c0 -27 -3 -30 -30 -30 -27 0 -30 3 -30 30 0 27 3 30 30 30 27 0 30 -3 30 -30z
m160 0 c0 -27 -3 -30 -30 -30 -27 0 -30 3 -30 30 0 27 3 30 30 30 27 0 30 -3
30 -30z"/>
<path d="M80 530 c0 -6 87 -10 240 -10 153 0 240 4 240 10 0 6 -87 10 -240 10
-153 0 -240 -4 -240 -10z"/>
<path d="M80 470 c0 -6 87 -10 240 -10 153 0 240 4 240 10 0 6 -87 10 -240 10
-153 0 -240 -4 -240 -10z"/>
</g>
</svg>
