<?xml version="1.0" encoding="iso-8859-1"?>
<!-- Uploaded to: SVG Repo, www.svgrepo.com, Generator: SVG Repo Mixer Tools -->
<svg height="800px" width="800px" version="1.1" id="Layer_1" xmlns="http://www.w3.org/2000/svg" xmlns:xlink="http://www.w3.org/1999/xlink" 
	 viewBox="0 0 512 512" xml:space="preserve">
<polygon style="fill:#97C2F7;" points="498.884,371.225 498.884,497.795 13.116,497.795 13.116,362.542 336.9,362.542 
	498.884,362.542 "/>
<polygon style="fill:#F0C419;" points="498.884,227.276 498.884,362.542 336.9,362.542 336.9,362.529 336.9,227.276 "/>
<g>
	<polygon style="fill:#FB7B76;" points="498.884,92.023 498.884,227.276 336.9,227.276 148.448,227.276 137.312,227.276 
		88.665,227.276 75.116,227.276 13.116,227.276 13.116,92.023 43.113,92.023 144.92,92.023 205.096,92.023 306.904,92.023 
		369.441,92.023 471.248,92.023 	"/>
	<path style="fill:#FB7B76;" d="M471.248,33.8v58.222H369.441V33.8c0-10.821,8.775-19.595,19.595-19.595h62.629
		C462.487,14.205,471.248,22.979,471.248,33.8z"/>
</g>
<polygon style="fill:#94C783;" points="336.9,227.276 336.9,362.529 13.116,362.529 13.116,227.276 75.116,227.276 88.665,227.276 
	137.312,227.276 148.448,227.276 "/>
<g>
	<path style="fill:#FB7B76;" d="M306.904,33.8v58.222H205.096V33.8c0-10.821,8.775-19.595,19.595-19.595h62.616
		C298.129,14.205,306.904,22.979,306.904,33.8z"/>
	<path style="fill:#FB7B76;" d="M144.92,33.8v58.222H43.113V33.8c0-10.821,8.775-19.595,19.595-19.595h62.616
		C136.145,14.205,144.92,22.979,144.92,33.8z"/>
</g>
<path d="M0,497.795c0,7.244,5.872,13.116,13.116,13.116h485.768c7.244,0,13.116-5.872,13.116-13.116v-126.57V227.276V92.023
	c0-7.244-5.872-13.116-13.116-13.116h-14.52V33.8c0-18.037-14.669-32.712-32.698-32.712h-62.629
	c-18.037,0-32.712,14.674-32.712,32.712v45.106H320.02V33.8c0-18.037-14.674-32.712-32.712-32.712h-62.616
	c-18.037,0-32.712,14.674-32.712,32.712v45.106h-33.944V33.8c0-18.037-14.674-32.712-32.712-32.712H62.708
	c-18.037,0-32.712,14.674-32.712,32.712v45.106h-16.88C5.872,78.906,0,84.779,0,92.023v135.253v135.253c0,0.003,0,0.004,0,0.007
	c0,0.003,0,0.004,0,0.007V497.795z M485.768,240.392v109.034H350.016V240.392H485.768z M485.768,484.679H26.232V375.658h459.536
	V484.679z M382.557,33.8c0-3.573,2.907-6.479,6.479-6.479h62.629c3.565,0,6.466,2.907,6.466,6.479v45.106h-75.575V33.8z
	 M218.213,33.8c0-3.573,2.907-6.479,6.479-6.479h62.616c3.573,0,6.479,2.907,6.479,6.479v45.106h-75.575L218.213,33.8L218.213,33.8z
	 M56.229,33.8c0-3.573,2.907-6.479,6.479-6.479h62.616c3.573,0,6.479,2.907,6.479,6.479v45.106H56.229V33.8z M43.113,105.139H144.92
	h60.177h101.807h62.538h101.807h14.52V214.16H205.096c-7.244,0-13.116,5.872-13.116,13.116c0,7.244,5.872,13.116,13.116,13.116
	h118.688v109.021H26.232V240.392h62.433c7.244,0,13.116-5.872,13.116-13.116c0-7.244-5.872-13.116-13.116-13.116H26.232V105.139
	H43.113z"/>
<path d="M137.312,240.392h4.223h6.912h10.493c7.244,0,13.116-5.872,13.116-13.116c0-7.244-5.872-13.116-13.116-13.116h-10.493
	h-6.912h-4.223c-7.244,0-13.116,5.872-13.116,13.116C124.196,234.52,130.068,240.392,137.312,240.392z"/>
</svg>