<?xml version="1.0" encoding="iso-8859-1"?>
<!-- Uploaded to: SVG Repo, www.svgrepo.com, Generator: SVG Repo Mixer Tools -->
<svg version="1.1" id="Layer_1" xmlns="http://www.w3.org/2000/svg" xmlns:xlink="http://www.w3.org/1999/xlink" 
	 viewBox="0 0 512 512" xml:space="preserve">
<g>
	<rect x="162.451" y="181.482" style="fill:#57A3A7;" width="187.109" height="70.475"/>
	<path style="fill:#57A3A7;" d="M169.779,100.026c1.787-3.002,2.967-4.973,3.112-5.215c4.838-7.842,13.494-13.069,23.367-13.069
		c15.16,0,27.439,12.279,27.439,27.439v58.952"/>
	<path style="fill:#57A3A7;" d="M288.302,168.132V109.18c0-15.16,12.279-27.439,27.439-27.439c9.871,0,18.528,5.228,23.367,13.069
		c0.145,0.244,1.325,2.213,3.112,5.215"/>
</g>
<g>
	<circle style="fill:#65B4BB;" cx="400.153" cy="318.412" r="111.847"/>
	<path style="fill:#65B4BB;" d="M223.694,168.123v150.288L50.238,258.244l-26.218-9.102c0,0,68.205-114.459,70.179-117.651
		c12.305-19.977,34.374-33.299,59.564-33.299c1.998,0,3.984,0.083,5.934,0.248C195.537,101.455,223.694,131.503,223.694,168.123z"/>
</g>
<path style="fill:#57A3A7;" d="M159.697,98.441l-47.849,108.12l-61.61,51.683l-26.218-9.102c0,0,68.205-114.459,70.179-117.651
	c12.305-19.977,34.374-33.299,59.564-33.299C155.761,98.192,157.747,98.275,159.697,98.441z"/>
<g>
	<rect x="184.662" y="216.719" style="fill:#65B4BB;" width="164.886" height="69.269"/>
	<circle style="fill:#65B4BB;" cx="111.847" cy="318.412" r="111.847"/>
	<path style="fill:#65B4BB;" d="M487.98,249.142l-199.675,69.269V168.123c0-23.7,11.797-44.647,29.835-57.295
		c11.348-7.967,25.178-12.636,40.096-12.636c25.19,0,47.259,13.322,59.564,33.299C419.775,134.683,487.98,249.142,487.98,249.142z"
		/>
</g>
<path style="fill:#57A3A7;" d="M334.596,227.782l-0.012,0.012c-23.771,17.223-40.498,43.583-45.037,73.926l-1.241,2.033v-135.63
	c0-23.7,11.797-44.647,29.835-57.295L334.596,227.782z"/>
<g>
	<circle style="fill:#A0DBFD;" cx="400.153" cy="318.412" r="73.702"/>
	<circle style="fill:#A0DBFD;" cx="111.847" cy="318.412" r="73.702"/>
</g>
<g>
	<path style="fill:#96D5F6;" d="M111.848,392.117c4.44,0,8.779-0.415,13.003-1.167c-34.502-6.144-60.704-36.272-60.704-72.54
		s26.202-66.395,60.704-72.54c-4.224-0.752-8.563-1.167-13.003-1.167c-40.707,0-73.707,33-73.707,73.707
		C38.142,359.117,71.141,392.117,111.848,392.117z"/>
	<path style="fill:#96D5F6;" d="M400.152,392.117c4.44,0,8.779-0.415,13.003-1.167c-34.502-6.144-60.704-36.272-60.704-72.54
		s26.202-66.395,60.704-72.54c-4.224-0.752-8.563-1.167-13.003-1.167c-40.707,0-73.707,33-73.707,73.707
		S359.445,392.117,400.152,392.117z"/>
</g>
<g>
	<circle style="fill:#C1E9FD;" cx="140.335" cy="300.953" r="24.822"/>
	<circle style="fill:#C1E9FD;" cx="424.019" cy="300.953" r="24.822"/>
</g>
<g>
	<path style="fill:#57A3A7;" d="M400.152,400.982c-45.531,0-82.572-37.041-82.572-82.572s37.041-82.572,82.572-82.572
		s82.572,37.041,82.572,82.572S445.683,400.982,400.152,400.982z M400.152,253.569c-35.754,0-64.841,29.087-64.841,64.841
		s29.087,64.841,64.841,64.841s64.841-29.087,64.841-64.841S435.906,253.569,400.152,253.569z"/>
	<path style="fill:#57A3A7;" d="M111.849,400.982c-45.531,0-82.572-37.041-82.572-82.572s37.041-82.572,82.572-82.572
		s82.572,37.041,82.572,82.572S157.379,400.982,111.849,400.982z M111.849,253.569c-35.754,0-64.841,29.087-64.841,64.841
		s29.087,64.841,64.841,64.841s64.841-29.087,64.841-64.841S147.602,253.569,111.849,253.569z"/>
</g>
</svg>