<svg xmlns="http://www.w3.org/2000/svg" viewBox="8 34 352 290" role="img" aria-label="auth namespace entities: users, roles, tokens">
  <rect x="8" y="34" width="352" height="290" rx="10" fill="#ffffff"/>
  <rect x="14" y="38" width="338" height="282" rx="8" fill="#f8fafc" stroke="#e2e8f0"/>
  <text x="26" y="54" font-family="sans-serif" font-size="11" font-weight="bold" fill="#94a3b8">auth</text>
  <path d="M92,240 L92,124" fill="none" stroke="#94a3b8" stroke-width="1.4"/>
  <path d="M160,272 L220,262" fill="none" stroke="#94a3b8" stroke-width="1.4"/>
  <path d="M279,240 L279,104" fill="none" stroke="#94a3b8" stroke-width="1.4"/>
  <rect x="24" y="60" width="136" height="64" rx="6" fill="#eff6ff" stroke="#1e40af" stroke-width="1.5"/>
  <path d="M24,66 a6,6 0 0 1 6,-6 h124 a6,6 0 0 1 6,6 v20 h-136 z" fill="#1e40af"/>
  <text x="92" y="78" text-anchor="middle" font-family="sans-serif" font-size="13" font-weight="bold" fill="#ffffff">TOKEN</text>
  <text x="34" y="100" font-family="monospace" font-size="12" fill="#1e293b">uuid</text>
  <text x="34" y="119" font-family="monospace" font-size="12" fill="#1e293b">token_hash</text>
  <rect x="24" y="240" width="136" height="64" rx="6" fill="#eff6ff" stroke="#1e40af" stroke-width="1.5"/>
  <path d="M24,246 a6,6 0 0 1 6,-6 h124 a6,6 0 0 1 6,6 v20 h-136 z" fill="#1e40af"/>
  <text x="92" y="258" text-anchor="middle" font-family="sans-serif" font-size="13" font-weight="bold" fill="#ffffff">USER</text>
  <text x="34" y="280" font-family="monospace" font-size="12" fill="#1e293b">name</text>
  <text x="34" y="299" font-family="monospace" font-size="12" fill="#1e293b">password_hash</text>
  <rect x="220" y="240" width="118" height="44" rx="6" fill="#eff6ff" stroke="#1e40af" stroke-width="1.5"/>
  <path d="M220,246 a6,6 0 0 1 6,-6 h106 a6,6 0 0 1 6,6 v20 h-118 z" fill="#1e40af"/>
  <text x="279" y="258" text-anchor="middle" font-family="sans-serif" font-size="13" font-weight="bold" fill="#ffffff">ROLE</text>
  <text x="230" y="280" font-family="monospace" font-size="12" fill="#1e293b">name</text>
  <rect x="220" y="60" width="118" height="44" rx="6" fill="#eff6ff" stroke="#1e40af" stroke-width="1.5"/>
  <path d="M220,66 a6,6 0 0 1 6,-6 h106 a6,6 0 0 1 6,6 v20 h-118 z" fill="#1e40af"/>
  <text x="279" y="78" text-anchor="middle" font-family="sans-serif" font-size="13" font-weight="bold" fill="#ffffff">SCOPE</text>
  <text x="230" y="100" font-family="monospace" font-size="12" fill="#1e293b">name</text>
  <circle cx="92" cy="240" r="3" fill="#94a3b8"/>
  <circle cx="92" cy="124" r="3" fill="#94a3b8"/>
  <circle cx="160" cy="272" r="3" fill="#94a3b8"/>
  <circle cx="220" cy="262" r="3" fill="#94a3b8"/>
  <circle cx="279" cy="240" r="3" fill="#94a3b8"/>
  <circle cx="279" cy="104" r="3" fill="#94a3b8"/>
  <text x="101" y="236" text-anchor="middle" font-family="sans-serif" font-size="10" font-weight="bold" fill="#475569">1</text>
  <text x="101" y="140" text-anchor="middle" font-family="sans-serif" font-size="10" font-weight="bold" fill="#475569">N</text>
  <text x="102" y="188" text-anchor="middle" font-family="sans-serif" font-size="9" font-style="italic" fill="#64748b">owns</text>
  <text x="170" y="266" text-anchor="middle" font-family="sans-serif" font-size="10" font-weight="bold" fill="#475569">N</text>
  <text x="210" y="257" text-anchor="middle" font-family="sans-serif" font-size="10" font-weight="bold" fill="#475569">N</text>
  <text x="190" y="250" text-anchor="middle" font-family="sans-serif" font-size="9" font-style="italic" fill="#64748b">assigned to</text>
  <text x="288" y="236" text-anchor="middle" font-family="sans-serif" font-size="10" font-weight="bold" fill="#475569">1</text>
  <text x="288" y="120" text-anchor="middle" font-family="sans-serif" font-size="10" font-weight="bold" fill="#475569">N</text>
  <text x="290" y="178" text-anchor="middle" font-family="sans-serif" font-size="9" font-style="italic" fill="#64748b">grants</text>
</svg>
