<svg xmlns="http://www.w3.org/2000/svg" viewBox="0 0 850 262" role="img" aria-label="Log record entity mapped to key/value pairs">
  <defs><marker id="ah-log" markerUnits="userSpaceOnUse" markerWidth="8" markerHeight="8" refX="4" refY="4"><circle cx="4" cy="4" r="3.5" fill="#ea580c"/></marker></defs>
  <rect x="0" y="0" width="850" height="262" rx="10" fill="#ffffff"/>
  <rect x="24" y="40" width="150" height="170" rx="6" fill="#eff6ff" stroke="#1e40af" stroke-width="1.5"/>
  <path d="M24,46 a6,6 0 0 1 6,-6 h138 a6,6 0 0 1 6,6 v24 h-150 z" fill="#1e40af"/>
  <text x="99" y="60" text-anchor="middle" font-family="sans-serif" font-size="14" font-weight="bold" fill="#ffffff">Log record</text>
  <text x="40" y="92" font-family="monospace" font-size="13" fill="#1e293b">timestamp</text>
  <text x="40" y="127" font-family="monospace" font-size="13" fill="#1e293b">stream</text>
  <text x="40" y="162" font-family="monospace" font-size="13" fill="#1e293b">field</text>
  <text x="40" y="197" font-family="monospace" font-size="13" fill="#1e293b">value</text>
  <circle cx="174" cy="87" r="3.5" fill="#ea580c"/>
  <circle cx="174" cy="122" r="3.5" fill="#ea580c"/>
  <circle cx="174" cy="157" r="3.5" fill="#ea580c"/>
  <circle cx="174" cy="192" r="3.5" fill="#ea580c"/>
  <path d="M96,150 h7 v55 h-7" fill="none" stroke="#94a3b8" stroke-width="1.2"/>
  <text x="110" y="173" font-family="sans-serif" font-size="11" font-weight="bold" fill="#475569">× N</text>
  <text x="110" y="186" font-family="sans-serif" font-size="9" fill="#64748b">pairs</text>
  <rect x="340" y="50" width="70" height="24" fill="#dbeafe" stroke="#94a3b8"/>
  <rect x="410" y="50" width="60" height="24" fill="#dbeafe" stroke="#94a3b8"/>
  <rect x="470" y="50" width="110" height="24" fill="#dbeafe" stroke="#94a3b8"/>
  <rect x="580" y="50" width="90" height="24" fill="#dbeafe" stroke="#94a3b8"/>
  <rect x="670" y="50" width="110" height="24" fill="#dcfce7" stroke="#94a3b8"/>
  <text x="375" y="66" text-anchor="middle" font-family="sans-serif" font-size="11" fill="#475569">seg 0</text>
  <text x="440" y="66" text-anchor="middle" font-family="sans-serif" font-size="11" fill="#475569">seg 1</text>
  <text x="525" y="66" text-anchor="middle" font-family="sans-serif" font-size="11" fill="#475569">seg 2</text>
  <text x="625" y="66" text-anchor="middle" font-family="sans-serif" font-size="11" fill="#475569">seg 3</text>
  <text x="725" y="66" text-anchor="middle" font-family="sans-serif" font-size="11" fill="#166534">value</text>
  <rect x="340" y="74" width="70" height="30" fill="#ffffff" stroke="#cbd5e1"/>
  <rect x="410" y="74" width="60" height="30" fill="#fef9c3" stroke="#cbd5e1"/>
  <rect x="470" y="74" width="110" height="30" fill="#fef9c3" stroke="#cbd5e1"/>
  <rect x="580" y="74" width="90" height="30" fill="#ffffff" stroke="#cbd5e1"/>
  <rect x="670" y="74" width="110" height="30" fill="#ffffff" stroke="#cbd5e1"/>
  <text x="375" y="93" text-anchor="middle" font-family="monospace" font-size="13" fill="#1e293b">entry</text>
  <text x="440" y="93" text-anchor="middle" font-family="monospace" font-size="13" fill="#1e293b">web</text>
  <text x="525" y="93" text-anchor="middle" font-family="monospace" font-size="13" fill="#1e293b">timestamp</text>
  <text x="625" y="93" text-anchor="middle" font-family="monospace" font-size="13" fill="#64748b">uuid</text>
  <text x="725" y="93" text-anchor="middle" font-family="monospace" font-size="13" fill="#1e293b">JSON record</text>
  <rect x="340" y="150" width="70" height="24" fill="#dbeafe" stroke="#94a3b8"/>
  <rect x="410" y="150" width="60" height="24" fill="#dbeafe" stroke="#94a3b8"/>
  <rect x="470" y="150" width="90" height="24" fill="#dbeafe" stroke="#94a3b8"/>
  <rect x="560" y="150" width="100" height="24" fill="#dbeafe" stroke="#94a3b8"/>
  <rect x="660" y="150" width="100" height="24" fill="#dbeafe" stroke="#94a3b8"/>
  <rect x="760" y="150" width="70" height="24" fill="#dcfce7" stroke="#94a3b8"/>
  <text x="375" y="166" text-anchor="middle" font-family="sans-serif" font-size="11" fill="#475569">seg 0</text>
  <text x="440" y="166" text-anchor="middle" font-family="sans-serif" font-size="11" fill="#475569">seg 1</text>
  <text x="515" y="166" text-anchor="middle" font-family="sans-serif" font-size="11" fill="#475569">seg 2</text>
  <text x="610" y="166" text-anchor="middle" font-family="sans-serif" font-size="11" fill="#475569">seg 3</text>
  <text x="710" y="166" text-anchor="middle" font-family="sans-serif" font-size="11" fill="#475569">seg 4</text>
  <text x="795" y="166" text-anchor="middle" font-family="sans-serif" font-size="11" fill="#166534">value</text>
  <rect x="340" y="174" width="70" height="30" fill="#ffffff" stroke="#cbd5e1"/>
  <rect x="410" y="174" width="60" height="30" fill="#fef9c3" stroke="#cbd5e1"/>
  <rect x="470" y="174" width="90" height="30" fill="#fef9c3" stroke="#cbd5e1"/>
  <rect x="560" y="174" width="100" height="30" fill="#fef9c3" stroke="#cbd5e1"/>
  <rect x="660" y="174" width="100" height="30" fill="#ffffff" stroke="#cbd5e1"/>
  <rect x="760" y="174" width="70" height="30" fill="#ffffff" stroke="#cbd5e1"/>
  <text x="375" y="193" text-anchor="middle" font-family="monospace" font-size="13" fill="#1e293b">index</text>
  <text x="440" y="193" text-anchor="middle" font-family="monospace" font-size="13" fill="#1e293b">web</text>
  <text x="515" y="193" text-anchor="middle" font-family="monospace" font-size="13" fill="#1e293b">level</text>
  <text x="610" y="193" text-anchor="middle" font-family="monospace" font-size="12" fill="#1e293b">ZXJyb3I=</text>
  <text x="710" y="193" text-anchor="middle" font-family="monospace" font-size="13" fill="#64748b">entry key</text>
  <text x="795" y="193" text-anchor="middle" font-family="monospace" font-size="13" fill="#94a3b8">∅</text>
  <path d="M174,87 C205,128 525,128 525,105" fill="none" stroke="#ea580c" stroke-width="1.8" stroke-dasharray="4 3" marker-end="url(#ah-log)"/>
  <path d="M174,122 C205,138 440,138 440,105" fill="none" stroke="#ea580c" stroke-width="1.8" stroke-dasharray="4 3" marker-end="url(#ah-log)"/>
  <path d="M174,122 C205,232 440,232 440,205" fill="none" stroke="#ea580c" stroke-width="1.8" stroke-dasharray="4 3" marker-end="url(#ah-log)"/>
  <path d="M174,157 C205,240 515,240 515,205" fill="none" stroke="#ea580c" stroke-width="1.8" stroke-dasharray="4 3" marker-end="url(#ah-log)"/>
  <path d="M174,192 C205,248 610,248 610,205" fill="none" stroke="#ea580c" stroke-width="1.8" stroke-dasharray="4 3" marker-end="url(#ah-log)"/>
</svg>
