<svg xmlns="http://www.w3.org/2000/svg" viewBox="0 0 800 260" role="img" aria-label="Token entity mapped to key/value pairs">
  <defs><marker id="ah-token" markerUnits="userSpaceOnUse" markerWidth="8" markerHeight="8" refX="4" refY="4"><circle cx="4" cy="4" r="3.5" fill="#ea580c"/></marker></defs>
  <rect x="0" y="0" width="800" height="260" rx="10" fill="#ffffff"/>
  <rect x="24" y="40" width="150" height="90" rx="6" fill="#eff6ff" stroke="#1e40af" stroke-width="1.5"/>
  <path d="M24,46 a6,6 0 0 1 6,-6 h138 a6,6 0 0 1 6,6 v24 h-150 z" fill="#1e40af"/>
  <text x="99" y="60" text-anchor="middle" font-family="sans-serif" font-size="14" font-weight="bold" fill="#ffffff">Token</text>
  <text x="40" y="90" font-family="monospace" font-size="13" fill="#1e293b">owner</text>
  <text x="40" y="120" font-family="monospace" font-size="13" fill="#1e293b">hash</text>
  <circle cx="174" cy="85" r="3.5" fill="#ea580c"/>
  <circle cx="174" cy="115" r="3.5" fill="#ea580c"/>
  <rect x="340" y="50" width="70" height="24" fill="#dbeafe" stroke="#94a3b8"/>
  <rect x="410" y="50" width="70" height="24" fill="#dbeafe" stroke="#94a3b8"/>
  <rect x="480" y="50" width="150" height="24" fill="#dbeafe" stroke="#94a3b8"/>
  <rect x="630" y="50" width="150" height="24" fill="#dcfce7" stroke="#94a3b8"/>
  <text x="375" y="66" text-anchor="middle" font-family="sans-serif" font-size="11" fill="#475569">seg 0</text>
  <text x="445" y="66" text-anchor="middle" font-family="sans-serif" font-size="11" fill="#475569">seg 1</text>
  <text x="555" y="66" text-anchor="middle" font-family="sans-serif" font-size="11" fill="#475569">seg 2</text>
  <text x="705" y="66" text-anchor="middle" font-family="sans-serif" font-size="11" fill="#166534">value</text>
  <rect x="340" y="74" width="70" height="30" fill="#ffffff" stroke="#cbd5e1"/>
  <rect x="410" y="74" width="70" height="30" fill="#fef9c3" stroke="#cbd5e1"/>
  <rect x="480" y="74" width="150" height="30" fill="#ffffff" stroke="#cbd5e1"/>
  <rect x="630" y="74" width="150" height="30" fill="#fef9c3" stroke="#cbd5e1"/>
  <text x="375" y="93" text-anchor="middle" font-family="monospace" font-size="13" fill="#1e293b">pat</text>
  <text x="445" y="93" text-anchor="middle" font-family="monospace" font-size="13" fill="#1e293b">alice</text>
  <text x="555" y="93" text-anchor="middle" font-family="monospace" font-size="13" fill="#64748b">uuid (generated)</text>
  <text x="705" y="93" text-anchor="middle" font-family="monospace" font-size="13" fill="#1e293b">token hash</text>
  <rect x="340" y="156" width="70" height="24" fill="#dbeafe" stroke="#94a3b8"/>
  <rect x="410" y="156" width="70" height="24" fill="#dbeafe" stroke="#94a3b8"/>
  <rect x="480" y="156" width="150" height="24" fill="#dbeafe" stroke="#94a3b8"/>
  <rect x="630" y="156" width="150" height="24" fill="#dcfce7" stroke="#94a3b8"/>
  <text x="375" y="172" text-anchor="middle" font-family="sans-serif" font-size="11" fill="#475569">seg 0</text>
  <text x="445" y="172" text-anchor="middle" font-family="sans-serif" font-size="11" fill="#475569">seg 1</text>
  <text x="555" y="172" text-anchor="middle" font-family="sans-serif" font-size="11" fill="#475569">seg 2</text>
  <text x="705" y="172" text-anchor="middle" font-family="sans-serif" font-size="11" fill="#166534">value</text>
  <rect x="340" y="180" width="70" height="30" fill="#ffffff" stroke="#cbd5e1"/>
  <rect x="410" y="180" width="70" height="30" fill="#ffffff" stroke="#cbd5e1"/>
  <rect x="480" y="180" width="150" height="30" fill="#fef9c3" stroke="#cbd5e1"/>
  <rect x="630" y="180" width="150" height="30" fill="#fef9c3" stroke="#cbd5e1"/>
  <text x="375" y="199" text-anchor="middle" font-family="monospace" font-size="13" fill="#1e293b">index</text>
  <text x="445" y="199" text-anchor="middle" font-family="monospace" font-size="13" fill="#1e293b">pat</text>
  <text x="555" y="199" text-anchor="middle" font-family="monospace" font-size="13" fill="#64748b">sha256(token)</text>
  <text x="705" y="199" text-anchor="middle" font-family="monospace" font-size="13" fill="#1e293b">alice</text>
  <path d="M174,85 C205,128 445,128 445,105" fill="none" stroke="#ea580c" stroke-width="1.8" stroke-dasharray="4 3" marker-end="url(#ah-token)"/>
  <path d="M174,85 C205,235 705,235 705,211" fill="none" stroke="#ea580c" stroke-width="1.8" stroke-dasharray="4 3" marker-end="url(#ah-token)"/>
  <path d="M174,115 C300,150 705,150 705,105" fill="none" stroke="#ea580c" stroke-width="1.8" stroke-dasharray="4 3" marker-end="url(#ah-token)"/>
  <path d="M174,115 C205,245 555,245 555,211" fill="none" stroke="#ea580c" stroke-width="1.8" stroke-dasharray="4 3" marker-end="url(#ah-token)"/>
</svg>
